<?xml version="1.0" encoding="UTF-8" standalone="no"?>
<!-- Created with Inkscape (http://www.inkscape.org/) -->

<svg
   width="210mm"
   height="297mm"
   viewBox="0 0 210 297"
   version="1.1"
   id="svg5"
   inkscape:version="1.2.2 (732a01da63, 2022-12-09)"
   sodipodi:docname="protagonist.svg"
   xmlns:inkscape="http://www.inkscape.org/namespaces/inkscape"
   xmlns:sodipodi="http://sodipodi.sourceforge.net/DTD/sodipodi-0.dtd"
   xmlns:xlink="http://www.w3.org/1999/xlink"
   xmlns="http://www.w3.org/2000/svg"
   xmlns:svg="http://www.w3.org/2000/svg">
  <sodipodi:namedview
     id="namedview7"
     pagecolor="#ffffff"
     bordercolor="#000000"
     borderopacity="0.25"
     inkscape:showpageshadow="2"
     inkscape:pageopacity="0.0"
     inkscape:pagecheckerboard="0"
     inkscape:deskcolor="#d1d1d1"
     inkscape:document-units="mm"
     showgrid="false"
     inkscape:zoom="1.5144813"
     inkscape:cx="-19.808762"
     inkscape:cy="325.19385"
     inkscape:window-width="3840"
     inkscape:window-height="2054"
     inkscape:window-x="-11"
     inkscape:window-y="-11"
     inkscape:window-maximized="1"
     inkscape:current-layer="layer1" />
  <defs
     id="defs2">
    <linearGradient
       inkscape:collect="always"
       id="linearGradient5379">
      <stop
         style="stop-color:#8e6c21;stop-opacity:0;"
         offset="0.01210654"
         id="stop5383" />
      <stop
         style="stop-color:#8e6c21;stop-opacity:1;"
         offset="0.59322029"
         id="stop5375" />
      <stop
         style="stop-color:#523c0c;stop-opacity:1;"
         offset="1"
         id="stop5377" />
    </linearGradient>
    <radialGradient
       inkscape:collect="always"
       xlink:href="#linearGradient5379"
       id="radialGradient5381"
       cx="102.45139"
       cy="124.14758"
       fx="102.45139"
       fy="124.14758"
       r="27.067718"
       gradientTransform="matrix(1,0,0,0.62196064,0,54.084588)"
       gradientUnits="userSpaceOnUse" />
  </defs>
  <g
     inkscape:label="Layer 1"
     inkscape:groupmode="layer"
     id="layer1">
    <ellipse
       style="fill:#d2924b;fill-opacity:0.878706;stroke-width:0.267902"
       id="path13289"
       cx="143.60527"
       cy="74.597878"
       rx="7.6869001"
       ry="9.9580297" />
    <path
       id="rect13152"
       style="fill:#6d645a;fill-opacity:0.87870598;stroke-width:0.264583"
       inkscape:label="Torso"
       d="m 147.99252,78.134766 -9.82059,0.247013 -1.1219,20.749121 1.49965,12.92221 -4.36356,6.45645 -1.34772,4.9165 -0.76894,4.91908 0.49713,3.96926 c -1.30155,-1.49069 -3.69271,-3.63038 -6.54896,-4.3558 -6.14275,-1.56012 -15.24094,1.45492 -23.86107,1.45366 -8.932465,0.001 -17.031465,-2.05962 -22.813599,0.0336 -4.033494,1.46016 -5.715576,3.44752 -6.799069,5.17487 l -2.051324,-12.98406 -10.176634,-0.21851 c -2.854118,15.82522 -2.227493,17.25102 -2.227493,18.749 v 9.65575 c 0,1.56666 3.918119,2.81368 10.114111,3.73569 17.44268,2.59557 52.938388,2.61639 69.897548,-0.0512 4.99938,-0.78635 10.61531,-2.41768 11.45563,-3.6742 l 1.72031,-3.63492 2.50269,-14.41566 0.84956,-6.70605 0.25115,-9.75599 0.0977,-4.69119 -1.42937,-12.913937 z"
       sodipodi:nodetypes="ccccccccscsccccssscccccccc" />
    <path
       id="rect12005"
       style="fill:#ffffff;stroke-width:0.205738"
       d="m 68.264913,136.5735 3.537721,-0.48043 v 17.60126 l -3.537721,-0.43676 z"
       sodipodi:nodetypes="ccccc"
       inkscape:label="Left Chevron" />
    <path
       id="path12632"
       style="fill:#ffffff;stroke-width:0.205738"
       d="m 138.0148,136.66085 -3.53772,-0.48043 v 17.60126 l 3.53772,-0.43676 z"
       sodipodi:nodetypes="ccccc"
       inkscape:label="Right Chevron" />
    <g
       id="g13197"
       inkscape:label="Head"
       style="display:inline">
      <ellipse
         style="fill:#596bfb;fill-opacity:1;stroke-width:0.298202"
         id="ellipse9418"
         cx="112.30737"
         cy="118.7934"
         rx="3.2736287"
         ry="2.9030292"
         inkscape:label="Left Eye" />
      <ellipse
         style="fill:#596bfb;fill-opacity:1;stroke-width:0.298202"
         id="ellipse9420"
         cx="93.863243"
         cy="118.88074"
         rx="3.2736287"
         ry="2.9030292"
         inkscape:label="Left Eye" />
      <ellipse
         style="fill:#e2b896;fill-opacity:1;stroke-width:0.336163"
         id="path9416"
         cx="103.08842"
         cy="114.53204"
         rx="3.2736287"
         ry="3.6891894"
         inkscape:label="Nose" />
      <path
         id="rect9474"
         style="fill:#1f1f41;stroke-width:0.408627"
         d="m 103.55492,112.5585 -16.734896,1.20355 -0.02997,0.61701 -3.74189,28.46028 c -0.03123,0.23749 0.1351,0.4535 0.372587,0.48473 0.237486,0.0312 0.453498,-0.13459 0.484725,-0.37207 l 3.261299,-24.80572 16.431555,-3.64216 16.08067,3.63957 3.28507,24.98297 c 0.0312,0.23749 0.24724,0.40382 0.48473,0.37259 0.23748,-0.0312 0.40381,-0.24775 0.37258,-0.48524 l -3.75222,-28.53779 c -0.0112,-0.0848 -0.0463,-0.16034 -0.0971,-0.22118 l -0.01,-0.49299 z"
         inkscape:label="Glasses" />
      <circle
         style="fill:#fbce7f;fill-opacity:1;stroke-width:0.264583"
         id="path4142"
         cx="103.24905"
         cy="135.04486"
         r="19.741358"
         inkscape:label="Scalp" />
      <path
         id="path4312"
         style="fill:url(#radialGradient5381);fill-opacity:1;stroke-width:0.354458"
         inkscape:transform-center-x="1.3695269"
         inkscape:transform-center-y="3.1176937"
         d="m 125.70353,152.88257 -10.73325,-1.12694 1.47024,6.14057 -8.97866,-3.78007 -2.84709,5.78495 -5.620009,-5.25394 -6.426255,3.85298 -0.690813,-7.40743 -9.190058,2.8781 5.191605,-6.93305 -10.950052,0.17244 8.563365,-4.46783 -9.058858,-3.18503 7.646645,-1.0443 -4.078143,-4.93504 3.877161,-1.62168 0.290097,-5.61555 8.855137,4.76834 9.672288,1.28733 9.10983,-1.35509 10.0396,-4.81036 1.24672,4.99853 4.40313,1.78528 -4.41952,4.49327 6.997,0.69229 -7.88394,4.46783 8.37943,3.18503 -10.48791,1.90903 z"
         sodipodi:nodetypes="ccccccccccccccccccccccccccccc"
         inkscape:label="Hair" />
    </g>
    <g
       id="g13235"
       transform="translate(4.1928547,2.7952364)"
       inkscape:export-filename="g13235.png"
       inkscape:export-xdpi="52.399746"
       inkscape:export-ydpi="52.399746">
      <rect
         style="fill:#000301;fill-opacity:0.878706;stroke-width:0.264583"
         id="rect13223"
         width="4.9413266"
         height="28.165558"
         x="136.87476"
         y="45.213139" />
      <rect
         style="fill:#000301;fill-opacity:0.878706;stroke-width:0.264583"
         id="rect13225"
         width="7.0754523"
         height="10.700514"
         x="135.78734"
         y="63.2859" />
      <rect
         style="fill:#000301;fill-opacity:0.878706;stroke-width:0.264583"
         id="rect13227"
         width="5.9835529"
         height="12.141809"
         x="136.31145"
         y="49.833824" />
      <rect
         style="fill:#000301;fill-opacity:0.878706;stroke-width:0.264583"
         id="rect13229"
         width="2.4895074"
         height="7.8616023"
         x="138.05849"
         y="39.002281" />
    </g>
  </g>
</svg>
